<?xml version="1.0" standalone="no"?>
<!DOCTYPE svg PUBLIC "-//W3C//DTD SVG 20010904//EN"
 "http://www.w3.org/TR/2001/REC-SVG-20010904/DTD/svg10.dtd">
<svg version="1.0" xmlns="http://www.w3.org/2000/svg"
 width="1024.000000pt" height="1024.000000pt" viewBox="0 0 1024.000000 1024.000000"
 preserveAspectRatio="xMidYMid meet">
<metadata>
Created by potrace 1.11, written by Peter Selinger 2001-2013
</metadata>
<g transform="translate(0.000000,1024.000000) scale(0.100000,-0.100000)"
fill="#000000" stroke="none">
<path d="M4700 10224 c-98 -35 -189 -129 -207 -214 -5 -20 -15 -142 -14 -157
1 -14 1 -30 1 -68 0 -14 0 -32 0 -40 0 -8 0 -26 0 -40 0 -14 0 -33 0 -42 -1
-105 0 -135 5 -143 3 -6 3 -10 -2 -10 -9 0 -9 -118 0 -126 3 -3 2 -18 -3 -32
-4 -15 -4 -37 0 -48 5 -11 4 -27 0 -34 -5 -7 -5 -23 0 -34 4 -12 4 -30 0 -41
-4 -11 -4 -29 0 -41 5 -11 5 -26 0 -33 -4 -7 -4 -28 0 -47 4 -19 4 -34 0 -34
-4 0 -4 -16 0 -35 7 -31 5 -36 -14 -40 -11 -3 -30 -5 -41 -4 -32 1 -218 -10
-245 -16 -14 -2 -45 -7 -70 -10 -42 -4 -114 -17 -170 -30 -14 -3 -35 -8 -48
-11 -12 -2 -59 -16 -105 -31 -45 -15 -86 -28 -92 -29 -23 -5 -234 -99 -285
-126 -107 -59 -145 -82 -148 -90 -2 -4 -8 -8 -14 -8 -11 0 -173 -117 -228
-165 -46 -39 -227 -220 -265 -265 -74 -85 -246 -338 -237 -349 2 -2 0 -7 -5
-10 -16 -11 -113 -220 -139 -301 -8 -25 -19 -54 -24 -65 -27 -60 -83 -317 -97
-446 -9 -83 -9 -385 0 -470 7 -75 39 -244 58 -309 7 -25 13 -50 15 -56 2 -15
43 -132 54 -159 28 -69 48 -111 92 -200 27 -55 53 -102 57 -105 4 -3 10 -13
14 -23 8 -21 126 -196 142 -212 6 -5 29 -32 50 -60 61 -76 241 -254 330 -326
44 -35 82 -66 85 -69 11 -11 159 -110 164 -110 3 0 29 -15 58 -34 60 -38 254
-132 343 -166 33 -13 74 -29 90 -35 25 -11 123 -41 160 -50 6 -1 17 -5 25 -8
8 -4 24 -8 35 -10 11 -2 27 -7 35 -10 8 -3 71 -22 140 -42 69 -19 150 -43 180
-52 30 -9 82 -24 114 -34 33 -11 67 -19 76 -19 9 0 20 -3 24 -7 3 -4 12 -8 19
-9 19 -3 117 -31 172 -49 28 -9 61 -19 74 -21 14 -3 29 -8 34 -11 5 -3 32 -11
60 -18 29 -7 99 -28 157 -45 58 -17 113 -33 123 -35 16 -4 62 -18 107 -33 8
-3 20 -6 25 -7 6 -2 66 -19 135 -40 69 -20 139 -41 155 -45 17 -5 55 -16 85
-25 30 -9 60 -17 67 -19 7 -1 16 -5 19 -9 4 -4 15 -7 24 -7 10 0 61 -14 114
-31 110 -36 201 -90 264 -158 24 -25 53 -55 63 -66 10 -12 19 -28 19 -38 0 -9
4 -17 8 -17 23 0 73 -155 77 -241 2 -30 5 -59 6 -65 1 -5 1 -11 0 -14 -1 -3
-4 -25 -7 -48 -19 -185 -163 -380 -338 -457 -111 -49 -183 -58 -451 -55 -44 1
-84 1 -90 0 -5 -2 -14 -1 -20 0 -24 5 -245 1 -255 -5 -5 -3 -10 -3 -10 2 0 6
-191 9 -210 2 -3 -1 -9 0 -15 1 -24 5 -235 1 -245 -5 -5 -3 -10 -3 -10 2 0 4
-21 7 -47 5 -126 -7 -382 5 -463 23 -147 31 -320 103 -426 175 -97 67 -221 77
-321 27 -28 -15 -89 -63 -135 -107 -717 -697 -723 -703 -734 -814 -3 -23 -6
-46 -9 -53 -2 -6 -1 -14 2 -17 3 -3 7 -18 8 -33 4 -43 45 -122 84 -162 50 -51
99 -91 110 -91 5 0 11 -4 13 -8 4 -11 155 -112 167 -112 5 0 11 -4 13 -8 4
-10 154 -93 258 -144 119 -58 344 -144 425 -163 6 -1 17 -5 25 -8 21 -8 178
-45 220 -52 19 -3 53 -10 75 -15 37 -8 104 -17 195 -26 19 -2 77 -6 128 -8 51
-3 98 -9 104 -12 6 -4 8 -3 5 4 -5 6 1 8 14 5 16 -4 20 -12 16 -30 -2 -13 -1
-26 4 -28 4 -3 4 -18 0 -33 -5 -15 -5 -37 -1 -48 5 -11 5 -27 0 -34 -4 -7 -4
-25 0 -40 4 -15 4 -33 0 -40 -5 -7 -5 -23 0 -34 4 -12 4 -30 0 -41 -4 -11 -4
-32 1 -47 4 -15 4 -30 -1 -33 -5 -3 -5 -18 -1 -33 5 -15 5 -36 1 -47 -4 -11
-4 -29 0 -41 5 -11 5 -26 0 -33 -4 -7 -4 -27 0 -45 4 -17 5 -40 4 -51 -4 -19
-5 -41 -4 -77 0 -10 0 -29 0 -43 0 -14 0 -32 0 -40 0 -8 0 -26 0 -40 0 -36 0
-53 -1 -67 -3 -48 14 -136 33 -176 43 -86 118 -147 215 -172 45 -11 776 -14
787 -3 4 4 15 8 26 10 39 6 121 68 168 127 22 27 49 118 51 171 5 100 4 135
-1 141 -4 3 -3 18 1 32 5 15 5 36 1 47 -4 11 -4 29 0 41 5 11 5 27 0 34 -5 7
-5 23 0 34 4 12 4 30 0 41 -4 11 -4 29 0 40 4 11 4 32 0 46 -4 15 -4 32 0 39
5 7 5 23 0 35 -5 12 -5 28 0 35 4 7 4 24 0 39 -4 14 -4 35 0 46 4 11 4 32 0
46 -4 15 -4 32 0 39 5 7 5 23 0 35 -5 12 -5 28 0 35 4 7 4 24 0 39 -4 14 -4
35 0 46 4 11 4 32 -1 48 -4 15 -5 27 -1 28 4 1 25 2 47 4 106 6 219 16 224 19
3 2 29 7 56 10 115 15 322 66 431 107 32 13 64 24 69 25 22 4 196 84 271 125
43 23 117 68 164 98 47 31 89 58 93 60 5 2 18 12 30 22 12 11 56 48 97 81 107
88 263 250 322 333 4 5 18 24 31 40 81 106 169 263 234 415 29 67 79 209 89
250 1 8 12 53 24 100 11 47 23 101 26 120 3 19 7 46 9 60 26 152 27 511 0 640
-2 13 -7 42 -10 65 -13 90 -51 225 -105 380 -35 100 -155 334 -226 440 -36 55
-69 102 -73 105 -3 3 -22 25 -41 50 -19 25 -42 54 -50 64 -44 56 -210 217
-301 291 -37 30 -168 125 -173 125 -3 0 -24 13 -48 29 -142 94 -383 196 -623
262 -22 6 -51 15 -65 20 -14 5 -34 11 -45 14 -11 2 -83 23 -160 45 -77 23
-155 46 -172 51 -70 19 -100 28 -168 49 -38 12 -79 23 -91 26 -12 2 -40 10
-63 18 -22 9 -41 13 -41 9 0 -3 -6 -1 -12 4 -7 6 -35 16 -63 22 -27 7 -59 17
-70 21 -11 5 -31 11 -45 13 -28 5 -218 61 -265 78 -16 5 -37 12 -46 14 -9 2
-32 8 -50 13 -84 25 -285 84 -299 87 -47 12 -390 115 -415 125 -16 6 -32 11
-35 11 -3 0 -21 8 -40 17 -70 32 -151 94 -199 152 -48 57 -111 172 -111 202 0
8 -3 18 -7 22 -7 7 -9 16 -17 76 -3 19 -5 37 -6 40 -2 3 -1 10 0 15 1 6 3 38
5 72 4 71 39 195 66 235 11 14 19 29 19 32 0 23 146 165 196 191 21 11 41 23
44 26 3 3 38 16 79 29 85 26 164 33 314 29 27 -1 132 0 160 2 6 0 40 -1 74 -2
35 -1 65 0 68 3 4 3 21 2 39 -2 19 -4 39 -4 46 0 7 4 27 4 45 0 18 -4 38 -4
45 0 6 4 26 4 43 1 18 -4 53 -4 80 -1 26 4 50 4 52 1 7 -6 123 -4 133 3 5 3
14 1 21 -3 7 -5 25 -5 40 -2 14 4 43 4 64 1 20 -4 40 -4 43 1 2 4 10 6 17 3
22 -8 147 -9 147 -1 0 5 4 6 9 3 4 -3 63 -8 130 -10 67 -3 125 -8 130 -11 5
-2 25 -7 45 -9 38 -5 108 -23 141 -36 11 -4 36 -14 55 -21 55 -20 191 -89 235
-119 107 -74 241 -79 346 -14 39 25 35 21 482 457 239 234 313 313 333 353 34
70 40 103 30 179 -15 121 -62 183 -226 300 -52 37 -102 70 -110 73 -8 3 -17 9
-20 13 -16 23 -280 161 -420 219 -41 17 -84 35 -95 40 -17 7 -52 19 -75 25 -3
1 -18 7 -33 13 -16 7 -35 12 -42 12 -8 0 -24 4 -37 9 -43 17 -63 24 -83 28
-11 2 -58 13 -105 23 -47 11 -98 22 -115 24 -16 3 -39 7 -51 9 -12 3 -45 8
-75 12 -30 3 -72 8 -94 11 -34 5 -78 7 -256 13 -13 1 -17 10 -15 37 1 20 -2
38 -6 41 -5 2 -5 9 -2 15 8 13 8 113 1 126 -3 4 -2 14 2 21 5 7 5 27 2 45 -4
17 -4 46 0 64 3 17 3 32 -1 32 -4 0 -4 16 0 35 4 19 4 37 0 40 -5 3 -5 18 -1
33 5 15 5 36 1 47 -4 11 -4 29 0 41 5 11 5 27 0 34 -5 7 -5 23 0 34 4 12 4 30
0 41 -4 11 -4 29 0 40 4 11 4 32 0 46 -4 15 -4 32 0 39 5 7 5 23 0 35 -5 12
-4 28 0 35 5 8 7 17 5 21 -3 3 -7 38 -9 77 -9 122 -68 211 -177 269 l-54 28
-390 2 c-336 2 -396 0 -435 -13z"/>
</g>
</svg>
